<svg xmlns="http://www.w3.org/2000/svg" width="1550" height="920" viewBox="0 0 1550 920" role="img" aria-labelledby="title desc">
  <title id="title">Advanced brake examples</title>
  <desc id="desc">Concept graphs for Alt Brake set lower or higher than normal BRAKE, plus QUICK and DRAG advanced braking behavior.</desc>
  <defs>
    <style>
      .bg { fill: #ffffff; }
      .panel { fill: #fcfcfc; stroke: #d2d2d2; stroke-width: 2; rx: 18; ry: 18; }
      .axis { stroke: #171717; stroke-width: 4; }
      .grid { stroke: #dfdfdf; stroke-width: 2; stroke-dasharray: 6 8; }
      .label { fill: #171717; font-family: Arial, Helvetica, sans-serif; font-size: 24px; }
      .title { fill: #171717; font-family: Arial, Helvetica, sans-serif; font-size: 34px; font-weight: 700; }
      .note { fill: #555555; font-family: Arial, Helvetica, sans-serif; font-size: 21px; }
      .small { fill: #444444; font-family: Arial, Helvetica, sans-serif; font-size: 19px; }
      .trace { fill: none; stroke: #111111; stroke-width: 8; stroke-linecap: round; stroke-linejoin: round; }
      .accent { fill: none; stroke: #d94f04; stroke-width: 8; stroke-linecap: round; stroke-linejoin: round; }
      .accent-fill { fill: #d94f04; }
      .ref { fill: none; stroke: #777777; stroke-width: 3; stroke-dasharray: 10 8; }
      .zone { fill: #f7efe7; stroke: none; }
    </style>
  </defs>

  <rect class="bg" x="0" y="0" width="1550" height="920"/>

  <g transform="translate(35,25)">
    <rect class="panel" x="0" y="0" width="715" height="390"/>
    <text class="title" x="36" y="48">Alt Brake softer</text>
    <text class="note" x="36" y="78">Alt Brake lower than BRAKE</text>

    <line class="grid" x1="110" y1="310" x2="650" y2="310"/>
    <line class="grid" x1="110" y1="225" x2="650" y2="225"/>
    <line class="grid" x1="110" y1="145" x2="650" y2="145"/>
    <line class="axis" x1="110" y1="330" x2="110" y2="110"/>
    <line class="axis" x1="110" y1="330" x2="650" y2="330"/>
    <line class="ref" x1="110" y1="185" x2="650" y2="185"/>

    <text class="label" x="42" y="122">100%</text>
    <text class="label" x="54" y="193">BRAKE</text>
    <text class="label" x="52" y="233">ALT BR</text>
    <text class="label" x="72" y="338">0</text>
    <text class="label" x="348" y="366">Time</text>
    <text class="label" x="24" y="245" transform="rotate(-90 24 245)">Brake</text>

    <path class="trace" d="M110 185 L235 185 L235 245 L385 245 L385 185 L650 185"/>
    <path class="accent" d="M235 245 L385 245"/>
    <circle class="accent-fill" cx="235" cy="245" r="6"/>
    <circle class="accent-fill" cx="385" cy="245" r="6"/>
    <text class="small" x="242" y="235">Alt Brake held</text>
    <text class="small" x="405" y="173">base BRAKE stays higher</text>
    <text class="small" x="132" y="352">Some drivers prefer a softer temporary brake button feel.</text>
  </g>

  <g transform="translate(800,25)">
    <rect class="panel" x="0" y="0" width="715" height="390"/>
    <text class="title" x="36" y="48">Alt Brake harder</text>
    <text class="note" x="36" y="78">Alt Brake higher than BRAKE</text>

    <line class="grid" x1="110" y1="310" x2="650" y2="310"/>
    <line class="grid" x1="110" y1="225" x2="650" y2="225"/>
    <line class="grid" x1="110" y1="145" x2="650" y2="145"/>
    <line class="axis" x1="110" y1="330" x2="110" y2="110"/>
    <line class="axis" x1="110" y1="330" x2="650" y2="330"/>
    <line class="ref" x1="110" y1="225" x2="650" y2="225"/>

    <text class="label" x="42" y="122">100%</text>
    <text class="label" x="54" y="233">BRAKE</text>
    <text class="label" x="52" y="153">ALT BR</text>
    <text class="label" x="72" y="338">0</text>
    <text class="label" x="348" y="366">Time</text>
    <text class="label" x="24" y="245" transform="rotate(-90 24 245)">Brake</text>

    <path class="trace" d="M110 225 L235 225 L235 145 L385 145 L385 225 L650 225"/>
    <path class="accent" d="M235 145 L385 145"/>
    <circle class="accent-fill" cx="235" cy="145" r="6"/>
    <circle class="accent-fill" cx="385" cy="145" r="6"/>
    <text class="small" x="242" y="136">Alt Brake held</text>
    <text class="small" x="405" y="214">base BRAKE stays lower</text>
    <text class="small" x="130" y="352">Others prefer a stronger temporary brake hit for corners.</text>
  </g>

  <g transform="translate(35,470)">
    <rect class="panel" x="0" y="0" width="715" height="390"/>
    <text class="title" x="36" y="48">QUICK</text>
    <text class="note" x="36" y="78">Zero-output zone near trigger release</text>

    <rect class="zone" x="110" y="110" width="165" height="220"/>
    <line class="grid" x1="110" y1="310" x2="650" y2="310"/>
    <line class="grid" x1="110" y1="225" x2="650" y2="225"/>
    <line class="grid" x1="110" y1="145" x2="650" y2="145"/>
    <line class="axis" x1="110" y1="330" x2="110" y2="110"/>
    <line class="axis" x1="110" y1="330" x2="650" y2="330"/>

    <text class="label" x="42" y="122">100%</text>
    <text class="label" x="58" y="233">Brake</text>
    <text class="label" x="60" y="318">0%</text>
    <text class="label" x="348" y="366">Trigger</text>
    <text class="label" x="24" y="248" transform="rotate(-90 24 248)">Action</text>
    <text class="small" x="160" y="352">Zone</text>
    <text class="small" x="510" y="352">normal throttle</text>

    <path class="trace" d="M110 310 L275 310 L650 145"/>
    <path class="accent" d="M110 225 L275 225"/>
    <line class="ref" x1="275" y1="110" x2="275" y2="330"/>
    <circle class="accent-fill" cx="275" cy="225" r="6"/>
    <text class="small" x="132" y="214">Quick brake</text>
    <text class="small" x="130" y="326">output stays 0</text>
    <text class="small" x="292" y="198">drive resumes above zone</text>
  </g>

  <g transform="translate(800,470)">
    <rect class="panel" x="0" y="0" width="715" height="390"/>
    <text class="title" x="36" y="48">DRAG</text>
    <text class="note" x="36" y="78">Adds release drag only while letting go</text>

    <line class="grid" x1="110" y1="310" x2="650" y2="310"/>
    <line class="grid" x1="110" y1="225" x2="650" y2="225"/>
    <line class="grid" x1="110" y1="145" x2="650" y2="145"/>
    <line class="axis" x1="110" y1="330" x2="110" y2="110"/>
    <line class="axis" x1="110" y1="330" x2="650" y2="330"/>

    <text class="label" x="42" y="122">100%</text>
    <text class="label" x="58" y="233">Drag</text>
    <text class="label" x="72" y="338">0</text>
    <text class="label" x="348" y="366">Time</text>
    <text class="label" x="24" y="245" transform="rotate(-90 24 245)">Effect</text>

    <path class="trace" d="M110 145 L210 145 L305 190 L395 245 L490 292 L650 330"/>
    <path class="accent" d="M205 330 L255 230 L380 230 L430 330"/>
    <circle class="accent-fill" cx="255" cy="230" r="6"/>
    <circle class="accent-fill" cx="380" cy="230" r="6"/>
    <text class="small" x="128" y="136">throttle still follows trigger</text>
    <text class="small" x="270" y="220">drag added on release</text>
    <text class="small" x="140" y="352">No zero-output zone before trigger reaches 0.</text>
  </g>
</svg>
